<svg width="399" height="407" viewBox="0 0 399 407" fill="none" xmlns="http://www.w3.org/2000/svg">
    <path d="M73.6249 220.745C72.2157 220.745 70.8066 220.662 69.3974 220.579C49.3379 219.087 25.797 206.322 19.5802 174.989C17.7566 165.954 18.9999 156.836 20.1604 148.05C22.6471 129.068 23.1444 120.281 8.05834 111.826C0.432401 107.599 -2.22009 97.9836 2.00733 90.3577C6.23476 82.7318 15.8501 80.0793 23.476 84.3067C38.4792 92.6786 47.8459 104.283 51.3273 118.789C54.2285 130.643 52.7364 141.999 51.4102 152.111C50.5813 158.66 49.7524 164.794 50.4984 168.855C51.6588 174.575 55.9691 187.92 71.7184 189.08C78.1838 189.578 83.4889 187.423 88.1307 182.532C92.441 177.89 95.0107 171.839 95.5909 168.192C96.9171 159.571 104.958 153.686 113.578 155.012C122.199 156.339 128.084 164.379 126.758 173C123.691 193.391 105.206 220.745 73.6249 220.745Z" fill="#7F52FF"/>
    <path d="M47.763 314.743C43.7013 314.743 39.7226 313.168 36.6556 310.101C30.5217 303.967 30.5217 294.02 36.6556 287.803L55.3889 269.07C58.373 266.086 62.3517 264.428 66.4962 264.428C70.6408 264.428 74.7024 266.086 77.6036 269.07C92.0266 283.493 118.966 285.399 137.948 281.089C155.438 277.11 187.019 263.599 202.686 218.424C205.504 210.218 214.456 205.824 222.745 208.726C230.951 211.544 235.345 220.496 232.443 228.785C224.403 251.995 212.052 271.059 195.723 285.648C181.3 298.496 163.81 307.531 144.994 311.842C117.474 318.141 88.3794 313.831 67.8225 301.232L58.8703 310.184C55.8862 313.251 51.8246 314.743 47.763 314.743Z" fill="#7F52FF"/>
    <path d="M237.583 407H210.146C205.338 407 200.862 404.845 197.878 401.115C194.894 397.385 193.733 392.494 194.811 387.769L233.272 218.507C235.179 210.052 243.634 204.747 252.088 206.653C260.543 208.56 265.848 217.015 263.942 225.469L229.874 375.502H237.583C246.286 375.502 253.332 382.547 253.332 391.251C253.332 399.954 246.286 407 237.583 407Z" fill="#7F52FF"/>
    <path d="M128.416 246.026L341.362 231.106C357.94 229.946 370.456 215.523 369.296 198.944L357.525 30.5935C355.619 3.65407 323.789 -9.60844 303.315 7.96438L230.454 70.7955C226.309 74.3598 220.341 74.7743 215.782 71.7902L135.047 19.8177C112.335 5.1461 82.5771 22.7189 84.4835 49.7413L96.254 218.092C97.4974 234.67 111.837 247.187 128.416 246.026Z" fill="#7F52FF"/>
    <path d="M331 215.606L136.87 229.117C124.105 230.028 112.998 220.33 112.086 207.565L106.118 121.607C105.206 108.842 114.904 97.735 127.67 96.8232L321.8 83.312C334.565 82.4002 345.672 92.0984 346.584 104.864L352.552 190.821C353.381 203.669 343.766 214.777 331 215.606Z" fill="black"/>
    <path d="M179.808 126.912C193.899 126.912 205.587 137.937 206.581 151.945C207.079 159.074 204.758 166.037 200.033 171.425C195.308 176.813 188.76 180.128 181.631 180.626C180.968 180.709 180.388 180.709 179.725 180.709C165.633 180.709 153.863 169.684 152.951 155.676C152.454 148.547 154.775 141.584 159.5 136.196C164.224 130.808 170.773 127.493 177.901 126.995C178.482 126.912 179.145 126.912 179.808 126.912ZM179.808 111.992C178.813 111.992 177.901 111.992 176.907 112.075C153.863 113.65 136.456 133.627 138.031 156.67C139.523 178.719 157.925 195.629 179.725 195.629C180.72 195.629 181.631 195.629 182.626 195.546C205.67 193.971 223.077 173.994 221.502 150.951C219.927 128.902 201.525 111.992 179.808 111.992Z" fill="white"/>
    <path d="M278.116 120.115C292.208 120.115 303.895 131.14 304.89 145.148C305.387 152.277 303.066 159.24 298.341 164.628C293.617 170.016 287.068 173.331 279.94 173.829C279.277 173.911 278.696 173.911 278.033 173.911C263.942 173.911 252.171 162.887 251.26 148.879C250.762 141.75 253.083 134.787 257.808 129.399C262.533 124.011 269.081 120.696 276.21 120.198C276.873 120.198 277.536 120.115 278.116 120.115ZM278.116 105.195C277.121 105.195 276.21 105.195 275.215 105.278C252.171 106.853 234.764 126.83 236.339 149.873C237.831 171.922 256.233 188.832 278.033 188.832C279.028 188.832 279.94 188.832 280.934 188.749C303.978 187.174 321.385 167.197 319.81 144.154C318.318 122.105 299.916 105.195 278.116 105.195Z" fill="white"/>
    <path d="M213.876 199.193C219.678 201.514 226.309 202.094 232.443 201.514C238.909 200.934 245.374 199.359 250.928 195.96C252.586 194.966 253.415 192.562 252.254 190.821C251.177 189.163 248.939 188.417 247.115 189.495C245.955 190.241 244.711 190.821 243.385 191.401C243.965 191.153 243.551 191.319 243.219 191.484C242.888 191.65 242.473 191.733 242.142 191.899C241.478 192.147 240.815 192.313 240.152 192.562C238.743 192.976 237.334 193.308 235.925 193.557C235.51 193.639 235.096 193.722 234.681 193.805C234.598 193.805 233.521 193.971 234.433 193.888C233.687 193.971 232.858 194.054 232.112 194.137C229.128 194.385 226.227 194.303 223.242 193.971C222.496 193.888 223.906 194.054 222.911 193.888C222.579 193.805 222.248 193.805 221.916 193.722C221.253 193.639 220.59 193.474 219.927 193.308C218.601 192.976 217.191 192.562 215.948 191.982C214.125 191.236 211.804 192.811 211.389 194.551C210.809 196.789 211.969 198.447 213.876 199.193Z" fill="white"/>
    <g clip-path="url(#clip0_4_1296)">
        <path d="M319.95 325C363.553 325 398.9 289.407 398.9 245.5C398.9 201.593 363.553 166 319.95 166C276.347 166 241 201.593 241 245.5C241 289.407 276.347 325 319.95 325Z" fill="black"/>
        <path d="M379.95 229.67L379.439 227.26L359.312 223.711L371.029 207.728L369.68 206.161L352.459 214.52L354.634 192.369L352.872 191.328L342.395 209.294L330.668 182.553H328.601L331.396 208.352L301.827 184.426L299.336 185.16L322.062 214.103L277.033 198.953L274.955 201.253L315.208 224.445L259.703 229.144L259.083 232.595L316.764 238.96L268.624 279.296L270.702 282.112L327.97 250.562L316.666 306.147H320.093L342.08 253.804L355.472 294.754L357.855 292.87L352.361 251.295L373.205 275.221L374.554 273.019L358.583 243.353L380.886 251.712L381.092 249.203L361.075 234.261L379.95 229.67Z" fill="#FED42B"/>
    </g>
    <path d="M370.539 321.208C366.478 321.208 362.499 319.633 359.432 316.566L343.931 301.066C337.797 294.932 337.797 284.902 343.931 278.768C350.065 272.634 360.095 272.634 366.229 278.768L381.729 294.269C387.863 300.403 387.863 310.432 381.729 316.566C378.663 319.633 374.601 321.208 370.539 321.208Z" fill="#7F52FF"/>
    <defs>
        <clipPath id="clip0_4_1296">
            <rect width="158" height="159" fill="white" transform="translate(241 166)"/>
        </clipPath>
    </defs>
</svg>
